<?xml version="1.0" encoding="UTF-8"?>
<svg width="44px" height="37px" viewBox="0 0 44 37" version="1.1" xmlns="http://www.w3.org/2000/svg" xmlns:xlink="http://www.w3.org/1999/xlink">
    <title>Combined Shape 2</title>
    <defs>
        <linearGradient x1="50%" y1="0%" x2="50%" y2="100%" id="linearGradient-1">
            <stop stop-color="#FFA34D" offset="0%"></stop>
            <stop stop-color="#F67575" offset="100%"></stop>
        </linearGradient>
    </defs>
    <g id="Page-1" stroke="none" stroke-width="1" fill="none" fill-rule="evenodd">
        <g id="Combined-Shape-2" fill="url(#linearGradient-1)" fill-rule="nonzero">
            <path d="M26.9420443,0.119409718 C32.599135,0.557245352 37.3133773,3.49439273 41.0847711,8.93085185 C44.8561649,14.367311 44.6023211,19.4936365 40.3232397,24.3098285 C36.0441582,29.1260205 31.1667307,32.8476233 25.6909569,35.4746371 C20.2151832,38.1016509 14.9207265,37.3354386 9.80758681,33.1760001 C4.69444711,29.0165615 1.52139943,23.3429415 0.288443758,16.1551398 C-0.944511914,8.96733815 1.77524324,4.38830715 8.44770923,2.4180468 C15.1201752,0.447786444 21.2849536,-0.318425915 26.9420443,0.119409718 Z M21.8657061,9 C17.4823196,9 14.2874314,11.3288681 14.2874314,15.019424 C14.2874314,17.8700603 16.2938212,19.7153382 19.9615528,20.364367 L21.8145879,20.6952445 C23.8848755,21.0643001 24.6005304,21.4333557 24.6005304,22.2987274 C24.6005304,23.2022773 23.6037253,23.8640322 21.9807221,23.8640322 C20.4471758,23.8640322 19.156441,23.2277294 18.9519681,22.1205626 L13.9679426,22.1205626 C13.9807221,25.8747488 17.1372716,28 21.9168244,28 C27.0030863,28 29.9679426,25.5947756 29.9679426,21.8151373 C29.9679426,18.8372405 28.1021279,17.2210315 24.1404665,16.5083724 L22.2874314,16.177495 C20.4471758,15.8466175 19.6548435,15.4521098 19.6548435,14.6249163 C19.6548435,13.7977227 20.4216167,13.1359678 21.9296039,13.1359678 C23.412032,13.1359678 24.5621918,13.7849967 24.6005304,14.9048895 L29.584556,14.9048895 C29.5589969,11.2779638 26.7986135,9 21.8657061,9 Z" id="Combined-Shape"></path>
        </g>
    </g>
</svg>